<!-- Safari pinned-tab mask. Apple requires a single layer, 100% black, on a
     transparent background — so the pin, the ball, and the 7 holes are ONE
     path with fill-rule="evenodd" (1 crossing = pin, 2 = ball knockout,
     3 = hole painted back). Geometry matches favicon.svg; keep in sync. -->
<svg xmlns="http://www.w3.org/2000/svg" width="64" height="64" viewBox="0 0 64 64">
  <path fill="black" fill-rule="evenodd" d="M32 6 a19 19 0 0 1 19 19 c0 13-19 33-19 33 s-19-20-19-33 a19 19 0 0 1 19-19 z M20 25 a12 12 0 1 0 24 0 a12 12 0 1 0 -24 0 z M29.5 25 a2.5 2.5 0 1 0 5 0 a2.5 2.5 0 1 0 -5 0 z M37 25 a2.5 2.5 0 1 0 5 0 a2.5 2.5 0 1 0 -5 0 z M22 25 a2.5 2.5 0 1 0 5 0 a2.5 2.5 0 1 0 -5 0 z M33.3 18.6 a2.5 2.5 0 1 0 5 0 a2.5 2.5 0 1 0 -5 0 z M25.7 18.6 a2.5 2.5 0 1 0 5 0 a2.5 2.5 0 1 0 -5 0 z M33.3 31.4 a2.5 2.5 0 1 0 5 0 a2.5 2.5 0 1 0 -5 0 z M25.7 31.4 a2.5 2.5 0 1 0 5 0 a2.5 2.5 0 1 0 -5 0 z"/>
</svg>
