<svg xmlns="http://www.w3.org/2000/svg" viewBox="0 0 64 64" width="64" height="64">
  <!-- Safari pinned-tab mask: single layer, solid black on transparent. Safari
       tints it with the link tag's color="" attribute. Pin outline with the
       ball knocked out via evenodd, holes painted back in. Geometry matches
       favicon.svg — keep the two in sync. -->
  <path fill-rule="evenodd" d="M32 6 a19 19 0 0 1 19 19 c0 13-19 33-19 33 s-19-20-19-33 a19 19 0 0 1 19-19 z M44 25 a12 12 0 1 1-24 0 a12 12 0 1 1 24 0 z"></path>
  <circle cx="32" cy="25" r="2.5"></circle>
  <circle cx="39.5" cy="25" r="2.5"></circle>
  <circle cx="24.5" cy="25" r="2.5"></circle>
  <circle cx="35.8" cy="18.6" r="2.5"></circle>
  <circle cx="28.2" cy="18.6" r="2.5"></circle>
  <circle cx="35.8" cy="31.4" r="2.5"></circle>
  <circle cx="28.2" cy="31.4" r="2.5"></circle>
</svg>
