<svg xmlns="http://www.w3.org/2000/svg" style="display:none" aria-hidden="true">
  <!-- Shared line-icon sprite. Referenced with <use href="/assets/icons.svg#ic-…">.
       Symbols carry no fill/stroke so they inherit them (fill:none, stroke,
       stroke-width) from the referencing <svg>'s CSS — keep it that way so the
       icons stay recolorable via currentColor. Court-line / daylight style:
       1.7px stroke, round caps/joins, 24×24 grid. -->
  <symbol id="ic-court" viewBox="0 0 24 24"><rect x="3" y="6" width="18" height="12" rx="1.5"/><line x1="12" y1="6" x2="12" y2="18"/></symbol>
  <symbol id="ic-outdoor" viewBox="0 0 24 24"><circle cx="12" cy="12" r="4"/><line x1="12" y1="3" x2="12" y2="5"/><line x1="12" y1="19" x2="12" y2="21"/><line x1="3" y1="12" x2="5" y2="12"/><line x1="19" y1="12" x2="21" y2="12"/><line x1="5.6" y1="5.6" x2="7" y2="7"/><line x1="17" y1="17" x2="18.4" y2="18.4"/><line x1="18.4" y1="5.6" x2="17" y2="7"/><line x1="7" y1="17" x2="5.6" y2="18.4"/></symbol>
  <symbol id="ic-indoor" viewBox="0 0 24 24"><path d="M4 11 12 5l8 6"/><path d="M6 10.5V20h12v-9.5"/></symbol>
  <symbol id="ic-reservable" viewBox="0 0 24 24"><rect x="4" y="5" width="16" height="15" rx="2"/><line x1="4" y1="9.5" x2="20" y2="9.5"/><line x1="8.5" y1="3" x2="8.5" y2="6.5"/><line x1="15.5" y1="3" x2="15.5" y2="6.5"/><path d="M9.3 14.4l1.8 1.8 3.6-3.8"/></symbol>
  <symbol id="ic-cost" viewBox="0 0 24 24"><path d="M13.4 4H5.2a1.2 1.2 0 0 0-1.2 1.2v8.2a1.2 1.2 0 0 0 .35.85l7.4 7.4a1.2 1.2 0 0 0 1.7 0l6.75-6.75a1.2 1.2 0 0 0 0-1.7l-7.4-7.4A1.2 1.2 0 0 0 13.4 4Z"/><circle cx="8.4" cy="8.4" r="1.25"/></symbol>
  <symbol id="ic-hours" viewBox="0 0 24 24"><circle cx="12" cy="12" r="8.5"/><path d="M12 7v5.3l3.4 2"/></symbol>
  <symbol id="ic-skill" viewBox="0 0 24 24"><rect x="4" y="13" width="3.4" height="6" rx="0.7"/><rect x="10.3" y="9" width="3.4" height="10" rx="0.7"/><rect x="16.6" y="5" width="3.4" height="14" rx="0.7"/></symbol>
  <symbol id="ic-surface" viewBox="0 0 24 24"><path d="M12 3.5l8.5 4.3L12 12 3.5 7.8Z"/><path d="M3.5 12 12 16.2 20.5 12"/><path d="M3.5 16 12 20.2 20.5 16"/></symbol>
  <symbol id="ic-weather" viewBox="0 0 24 24"><circle cx="8.5" cy="8" r="3"/><line x1="8.5" y1="2.5" x2="8.5" y2="3.6"/><line x1="3.7" y1="8" x2="4.8" y2="8"/><line x1="4.8" y1="4.3" x2="5.6" y2="5.1"/><path d="M8 19.5a4 4 0 0 1-.3-8 5.2 5.2 0 0 1 10 1.4A3.6 3.6 0 0 1 17 19.5Z"/></symbol>
  <symbol id="ic-wait" viewBox="0 0 24 24"><circle cx="12" cy="13.5" r="7"/><path d="M12 13.5V9.6"/><line x1="9.6" y1="3.5" x2="14.4" y2="3.5"/><line x1="12" y1="3.5" x2="12" y2="6.5"/><line x1="18.3" y1="7.2" x2="19.6" y2="5.9"/></symbol>
  <symbol id="ic-restroom" viewBox="0 0 24 24"><circle cx="12" cy="5.3" r="2.2"/><path d="M8.2 20v-4.5a3.8 3.8 0 0 1 7.6 0V20"/><line x1="12" y1="10.5" x2="12" y2="20"/></symbol>
  <symbol id="ic-water" viewBox="0 0 24 24"><path d="M12 3.5c3.5 5 6 8 6 11a6 6 0 0 1-12 0c0-3 2.5-6 6-11Z"/></symbol>
  <symbol id="ic-lights" viewBox="0 0 24 24"><path d="M9 18h6"/><path d="M10 21h4"/><path d="M12 3a6 6 0 0 0-4 10.5c.8.7 1.2 1.5 1.3 2.5h5.4c.1-1 .5-1.8 1.3-2.5A6 6 0 0 0 12 3Z"/></symbol>
  <symbol id="ic-parking" viewBox="0 0 24 24"><rect x="4" y="4" width="16" height="16" rx="3"/><path d="M9.5 17V7h3.2a2.9 2.9 0 0 1 0 5.8H9.5"/></symbol>
  <symbol id="ic-quiet" viewBox="0 0 24 24"><path d="M4 9h3l4-3v12l-4-3H4Z"/><line x1="15" y1="9.5" x2="19.5" y2="14.5"/><line x1="19.5" y1="9.5" x2="15" y2="14.5"/></symbol>
</svg>
